<svg id="Layer_85" data-name="Layer 85" xmlns="http://www.w3.org/2000/svg" viewBox="0 0 24 24"><defs><style>.cls-1,.cls-2{fill:#00e636;}.cls-2{opacity:0.5;}</style></defs><title>icon-battery-high</title><rect class="cls-1" x="12.5" y="8.5" width="2" height="7"/><rect class="cls-1" x="8.5" y="8.5" width="2" height="7"/><rect class="cls-1" x="4.5" y="8.5" width="2" height="7"/><path class="cls-2" d="M20.5,8.5v7c1.93,0,3-1.57,3-3.5S22.43,8.5,20.5,8.5Z"/><path class="cls-2" d="M16.5,4.5H2.5a2,2,0,0,0-2,2v11a2,2,0,0,0,2,2h14a2,2,0,0,0,2-2V6.5A2,2,0,0,0,16.5,4.5Zm0,13H2.5V6.5h14Z"/></svg>