<svg id="Layer_89" data-name="Layer 89" xmlns="http://www.w3.org/2000/svg" viewBox="0 0 24 24"><defs><style>.cls-1{opacity:0.2;}.cls-2,.cls-3{fill:#fff;}.cls-3{fill-rule:evenodd;}</style></defs><title>icon-battery-na</title><g class="cls-1"><path class="cls-2" d="M16.5,6.5v11H2.5V6.5h14m0-2H2.5a2,2,0,0,0-2,2v11a2,2,0,0,0,2,2h14a2,2,0,0,0,2-2V6.5a2,2,0,0,0-2-2Z"/><path class="cls-2" d="M14.5,15.5H4.5v-7h10Z"/><path class="cls-3" d="M20.5,8.5c1.93,0,3,1.57,3,3.5s-1.07,3.5-3,3.5C20.47,15.5,20.52,8.5,20.5,8.5Z"/></g></svg>