<svg id="Layer_84" data-name="Layer 84" xmlns="http://www.w3.org/2000/svg" viewBox="0 0 24 24"><defs><style>.cls-1,.cls-2,.cls-3{fill:#ffd640;}.cls-2{fill-rule:evenodd;}.cls-2,.cls-3{opacity:0.5;}</style></defs><title>icon-battery-ok</title><path class="cls-1" d="M10.5,15.5h-2v-7h2Z"/><path class="cls-1" d="M6.5,15.5h-2v-7h2Z"/><path class="cls-2" d="M20.5,8.5c1.93,0,3,1.57,3,3.5s-1.07,3.5-3,3.5C20.46,15.5,20.52,8.5,20.5,8.5Z"/><path class="cls-3" d="M16.5,6.5v11H2.5V6.5h14m0-2H2.5a2,2,0,0,0-2,2v11a2,2,0,0,0,2,2h14a2,2,0,0,0,2-2V6.5a2,2,0,0,0-2-2Z"/></svg>